# xmcd
#
# Track frame offsets:
#	150
#	18675
#	34275
#	66000
#	91725
#	109900
#	134700
#	166875
#
# Disc length: 2579 seconds
#
# Revision: 1
# Processed by: cddbd v1.5.2PL0 Copyright (c) Steve Scherf et al.
# Submitted via: EZCDAudioConverter 8.3.2.1
#
DISCID=6b0a1108
DTITLE=Matrix - Can You Feel It
DYEAR=1994
DGENRE=
TTITLE0=Can You Feel It (7″ Jazzysaxyradio Mix)
TTITLE1=Can You Feel It (7″ Indawoodleidergood Mix)
TTITLE2=Can You Feel It (12″ Lazyjazzyfreshclub Mix)
TTITLE3=Can You Feel It (12″ Houseytranceytimbaly Mix)
TTITLE4=Can You Feel It (7″ Radio Edit)
TTITLE5=Can You Feel It (12″ Feelsgood Mix)
TTITLE6=Can You Feel It (12″ Capoverdetrance Mix)
TTITLE7=Can You Feel It (12″ Technomaniac Mix)
EXTD=
EXTT0=
EXTT1=
EXTT2=
EXTT3=
EXTT4=
EXTT5=
EXTT6=
EXTT7=
PLAYORDER=
